<mxfile host="app.diagrams.net" modified="2022-02-03T21:15:50.692Z" agent="5.0 (Windows NT 10.0; Win64; x64) AppleWebKit/537.36 (KHTML, like Gecko) Chrome/97.0.4692.99 Safari/537.36 Edg/97.0.1072.76" etag="lch6XnPl8Pnm0rEA2mSf" version="16.5.3" type="github">
  <diagram id="8rAg1XmdmyNu53r8Q8oq" name="Page-1">
    <mxGraphModel dx="1102" dy="1724" grid="1" gridSize="12" guides="1" tooltips="1" connect="1" arrows="1" fold="1" page="1" pageScale="1" pageWidth="850" pageHeight="1100" math="0" shadow="0">
      <root>
        <mxCell id="0" />
        <mxCell id="1" parent="0" />
        <mxCell id="0Fs9jTtPmaf5LqFxDRtv-1" value="Student" style="swimlane;childLayout=stackLayout;horizontal=1;startSize=30;horizontalStack=0;rounded=1;fontSize=14;fontStyle=0;strokeWidth=2;resizeParent=0;resizeLast=1;shadow=0;dashed=0;align=center;fillColor=#0050ef;fontColor=#ffffff;strokeColor=#001DBC;gradientColor=none;swimlaneFillColor=default;perimeterSpacing=0;" parent="1" vertex="1">
          <mxGeometry x="48" y="-1056" width="168" height="120" as="geometry" />
        </mxCell>
        <mxCell id="0Fs9jTtPmaf5LqFxDRtv-2" value="firstName (string)&#xa;lastName (string)&#xa;email (string)&#xa;dateRegistered (dateTime)" style="align=left;strokeColor=none;fillColor=none;spacingLeft=4;fontSize=13;verticalAlign=top;resizable=0;rotatable=0;part=1;" parent="0Fs9jTtPmaf5LqFxDRtv-1" vertex="1">
          <mxGeometry y="30" width="168" height="90" as="geometry" />
        </mxCell>
        <mxCell id="0Fs9jTtPmaf5LqFxDRtv-4" value="Course" style="swimlane;childLayout=stackLayout;horizontal=1;startSize=30;horizontalStack=0;rounded=1;fontSize=14;fontStyle=0;strokeWidth=2;resizeParent=0;resizeLast=1;shadow=0;dashed=0;align=center;fillColor=#e51400;fontColor=#ffffff;strokeColor=#B20000;swimlaneFillColor=default;" parent="1" vertex="1">
          <mxGeometry x="444" y="-1056" width="160" height="120" as="geometry" />
        </mxCell>
        <mxCell id="0Fs9jTtPmaf5LqFxDRtv-5" value="title (string)&#xa;price (string)&#xa;instructor (string)&#xa;tags (string)" style="align=left;strokeColor=none;fillColor=none;spacingLeft=4;fontSize=13;verticalAlign=top;resizable=0;rotatable=0;part=1;" parent="0Fs9jTtPmaf5LqFxDRtv-4" vertex="1">
          <mxGeometry y="30" width="160" height="90" as="geometry" />
        </mxCell>
        <mxCell id="0Fs9jTtPmaf5LqFxDRtv-10" value="" style="edgeStyle=entityRelationEdgeStyle;fontSize=12;html=1;endArrow=ERmany;startArrow=ERmany;rounded=0;entryX=0;entryY=0.25;entryDx=0;entryDy=0;" parent="1" target="0Fs9jTtPmaf5LqFxDRtv-5" edge="1">
          <mxGeometry width="100" height="100" relative="1" as="geometry">
            <mxPoint x="216" y="-960" as="sourcePoint" />
            <mxPoint x="316" y="-1056" as="targetPoint" />
          </mxGeometry>
        </mxCell>
        <mxCell id="0Fs9jTtPmaf5LqFxDRtv-11" value="enrolls" style="edgeLabel;html=1;align=center;verticalAlign=middle;resizable=0;points=[];fontSize=13;" parent="0Fs9jTtPmaf5LqFxDRtv-10" vertex="1" connectable="0">
          <mxGeometry x="-0.0013" y="-1" relative="1" as="geometry">
            <mxPoint as="offset" />
          </mxGeometry>
        </mxCell>
        <mxCell id="0Fs9jTtPmaf5LqFxDRtv-12" value="Enrollment" style="swimlane;childLayout=stackLayout;horizontal=1;startSize=30;horizontalStack=0;rounded=1;fontSize=14;fontStyle=0;strokeWidth=2;resizeParent=0;resizeLast=1;shadow=0;dashed=0;align=center;fillColor=#f0a30a;fontColor=#000000;strokeColor=#BD7000;" parent="1" vertex="1">
          <mxGeometry x="252" y="-840" width="160" height="120" as="geometry" />
        </mxCell>
        <mxCell id="0Fs9jTtPmaf5LqFxDRtv-13" value="studentId (number)&#xa;courseId (number)&#xa;date (dateTime)&#xa;" style="align=left;strokeColor=none;fillColor=none;spacingLeft=4;fontSize=13;verticalAlign=top;resizable=0;rotatable=0;part=1;" parent="0Fs9jTtPmaf5LqFxDRtv-12" vertex="1">
          <mxGeometry y="30" width="160" height="90" as="geometry" />
        </mxCell>
        <mxCell id="CI86vbb54TRBpVKYZwGc-1" style="edgeStyle=orthogonalEdgeStyle;rounded=0;orthogonalLoop=1;jettySize=auto;html=1;exitX=0;exitY=0;exitDx=0;exitDy=0;fontSize=13;startArrow=ERmany;startFill=0;endArrow=ERmany;endFill=0;" edge="1" parent="1" source="0Fs9jTtPmaf5LqFxDRtv-2">
          <mxGeometry relative="1" as="geometry">
            <mxPoint x="600" y="-840" as="targetPoint" />
          </mxGeometry>
        </mxCell>
      </root>
    </mxGraphModel>
  </diagram>
</mxfile>
